<svg xmlns="http://www.w3.org/2000/svg" viewBox="0 0 561.16 68.52"><defs><style>.cls-1{fill:#f5d265;}.cls-2{fill:#101729;}</style></defs><g id="Layer_2" data-name="Layer 2"><g id="Layer_1-2" data-name="Layer 1"><path class="cls-1" d="M0,34.14a2.22,2.22,0,0,1,.25-.83,2,2,0,0,1,.57-.65L32.62.86C33.8-.31,34.68-.29,35.89.91Q46.45,11.46,57,22c1.33,1.32,1.28,2.15-.08,3.52Q46.5,36,36.05,46.44c-1.43,1.41-2.2,1.42-3.63,0Q25.84,39.89,19.28,33.3c-2.4-2.4-2.73-2.4-5.18.05C12,35.42,10,37.51,7.88,39.57c-1.27,1.25-2.1,1.24-3.39,0S2,37.05.74,35.82a2.21,2.21,0,0,1-.56-.76A2.07,2.07,0,0,1,0,34.14Zm34.37-3.4c2.83,0,6.86-4.08,6.82-6.88S37,17,34.27,17.06,27.4,21.2,27.42,24,31.56,30.76,34.37,30.74Z"/><path class="cls-1" d="M16.85,38.57c.77-.07,1.26.6,1.79,1.14q6.81,6.78,13.61,13.59c1.62,1.61,2.35,1.6,4,0L50.08,39.44c1.64-1.64,2.38-1.64,4,0l3.4,3.4a2,2,0,0,1,0,3.18l-21.7,21.7a2,2,0,0,1-3.16,0L11.2,46.26A1.8,1.8,0,0,1,11,43.48c1.45-1.52,3-3,4.45-4.47a1.88,1.88,0,0,1,.63-.36A1.81,1.81,0,0,1,16.85,38.57Z"/><path class="cls-2" d="M356.18,19.24l-6.89,19.92L348,42.85l-1.06,3a3.77,3.77,0,0,1-.14.45l-.77,2.21H346l-.63-1.84-.25-.78-9.21-26.65h-5.58L342,51.08h8.12l11.68-31.8Z"/><path class="cls-2" d="M383.65,20.39a15.31,15.31,0,0,0-7-1.65,15.05,15.05,0,0,0-7.9,2.06,13.8,13.8,0,0,0-5.37,5.76,19.8,19.8,0,0,0-.09,16.78,14.61,14.61,0,0,0,5.26,6,14.88,14.88,0,0,0,8.22,2.23,13.28,13.28,0,0,0,6.41-1.42,13,13,0,0,0,4.91-4.26,15.49,15.49,0,0,0,2.36-5.28h-5.34q-2,6.43-8.06,6.45A10,10,0,0,1,368,41.65a12.33,12.33,0,0,1-1.39-5.31h24.33a19.77,19.77,0,0,0,.12-2.18,17,17,0,0,0-2-8.69A12.73,12.73,0,0,0,383.65,20.39Zm-16.92,12a11.91,11.91,0,0,1,3-6.82,9.54,9.54,0,0,1,3.38-2,9.65,9.65,0,0,1,3.95-.52,8.06,8.06,0,0,1,6.16,2.5,11,11,0,0,1,2.66,6.93Z"/><path class="cls-2" d="M411.19,18.74a11.25,11.25,0,0,0-7,2.3A13.07,13.07,0,0,0,400,26.13V19.2H395V51H400V35.2a13.11,13.11,0,0,1,1.52-6.4,11.45,11.45,0,0,1,3.9-4.31A9,9,0,0,1,410.38,23a8,8,0,0,1,3.15.46,7.88,7.88,0,0,1,2.69,1.66c1.39,1.36,2.1,3.84,2.1,7.32V51h5.08V32.21q0-6.83-3.15-10.12a11.71,11.71,0,0,0-9.06-3.35Z"/><path class="cls-2" d="M436.72,10.3h-5.09v8.94h-6.09v4.22h6.09v18.3a13.49,13.49,0,0,0,1,5.68,5.33,5.33,0,0,0,2.93,2.82,14.89,14.89,0,0,0,5.58.82h4.82V46.86h-4.85a4.53,4.53,0,0,1-3.47-1,5.87,5.87,0,0,1-.85-3.72V23.46h9.14V19.24h-9.14Z"/><path class="cls-2" d="M473,35.07a13,13,0,0,1-1.52,6.4,11.5,11.5,0,0,1-4,4.38,9.11,9.11,0,0,1-4.92,1.51,7.81,7.81,0,0,1-5.84-2.11c-1.39-1.37-2.1-3.85-2.1-7.33V19.24h-5.08V38.11q0,6.82,3.16,10.14a11.65,11.65,0,0,0,4.09,2.58,11.9,11.9,0,0,0,4.81.7,11.78,11.78,0,0,0,5.12-1.14,13,13,0,0,0,4-2.87,9.48,9.48,0,0,0,2.14-3.38V51H478V19.24h-5.07Z"/><path class="cls-2" d="M501.75,18.74a19.8,19.8,0,0,0-6.22.75,7,7,0,0,0-3.42,2.23,18,18,0,0,0-2.42,4.35l-.12.18v-7h-5.09v31.8h5.09V34.83q0-5.91,2.21-8.48c1.48-1.72,4.12-2.58,7.88-2.58a17.32,17.32,0,0,1,2.09.07Z"/><path class="cls-2" d="M523.63,20.39a15.31,15.31,0,0,0-7-1.65,15.05,15.05,0,0,0-7.9,2.06,13.8,13.8,0,0,0-5.37,5.76,20,20,0,0,0-.09,16.78,14.61,14.61,0,0,0,5.26,6,15,15,0,0,0,8.23,2.23,13.41,13.41,0,0,0,6.35-1.41A13.21,13.21,0,0,0,528,45.89a15,15,0,0,0,2.35-5.28H525Q523,47,517,47.06a10,10,0,0,1-5.46-1.46,10.16,10.16,0,0,1-3.65-3.91,12.49,12.49,0,0,1-1.4-5.31h24.36A17.6,17.6,0,0,0,531,34.2a16.94,16.94,0,0,0-2-8.69A12.68,12.68,0,0,0,523.63,20.39Zm-16.92,12a12,12,0,0,1,3-6.82,9.54,9.54,0,0,1,3.38-2,9.65,9.65,0,0,1,3.95-.52,8.06,8.06,0,0,1,6.16,2.5,11.06,11.06,0,0,1,2.68,6.93Z"/><path class="cls-2" d="M558,35.51a23.23,23.23,0,0,0-9.29-2.73,23.94,23.94,0,0,1-5.81-1.21,5.47,5.47,0,0,1-2.51-1.65,3.47,3.47,0,0,1-.57-2,4.27,4.27,0,0,1,.53-1.94,4.41,4.41,0,0,1,1.35-1.5A9,9,0,0,1,547.42,23a8.13,8.13,0,0,1,3.1.32,7.88,7.88,0,0,1,2.74,1.46,6.72,6.72,0,0,1,2,4.43h5a10.33,10.33,0,0,0-1-4.12,10.63,10.63,0,0,0-2.57-3.42,13.17,13.17,0,0,0-9-2.89,15.59,15.59,0,0,0-7,1.36,11.06,11.06,0,0,0-4.45,3.67,8.24,8.24,0,0,0-1.52,4.72,6.89,6.89,0,0,0,2.79,5.45,14.56,14.56,0,0,0,7.85,2.82A51.72,51.72,0,0,1,552,37.88a7.38,7.38,0,0,1,3.2,1.56A3.46,3.46,0,0,1,556.1,42a4.12,4.12,0,0,1-.74,2.49,6.39,6.39,0,0,1-2.78,2,12.22,12.22,0,0,1-4.9.83A9.25,9.25,0,0,1,541,45.22a7.16,7.16,0,0,1-1.63-2.33,6.9,6.9,0,0,1-.58-2.76h-5a11,11,0,0,0,1,4.58,11.23,11.23,0,0,0,2.81,3.78,14.63,14.63,0,0,0,9.76,3.07,16.34,16.34,0,0,0,10.06-2.73,8.93,8.93,0,0,0,2.81-3.35,8.79,8.79,0,0,0,.9-4.24,6.23,6.23,0,0,0-.77-3.3A6.36,6.36,0,0,0,558,35.51Z"/><path class="cls-1" d="M106,19.56a13.31,13.31,0,0,0-7.76-2.35A11.55,11.55,0,0,0,92,18.84a11.16,11.16,0,0,0-4.3,4.71,2.26,2.26,0,0,1-.26.42V18.18H77.33V62.89H87.48V45.16a2.73,2.73,0,0,1,.26.43A11,11,0,0,0,92,50.36,11.4,11.4,0,0,0,98.28,52a13.4,13.4,0,0,0,7.8-2.31,14.49,14.49,0,0,0,5-6.24,23.36,23.36,0,0,0,0-17.73A14.56,14.56,0,0,0,106,19.56ZM100.76,41a6.25,6.25,0,0,1-2.41,2,6.52,6.52,0,0,1-3.08.58,7.09,7.09,0,0,1-3.15-.64,6.83,6.83,0,0,1-2.52-2,9.49,9.49,0,0,1-2.21-6.33,9.49,9.49,0,0,1,2.21-6.33,7,7,0,0,1,2.51-2,7.16,7.16,0,0,1,3.16-.64,6.52,6.52,0,0,1,3.08.58,6.33,6.33,0,0,1,2.41,2,11.82,11.82,0,0,1,0,12.79Z"/><path class="cls-1" d="M125.26,6.31H115.1V51h10.16Z"/><path class="cls-1" d="M161.06,32.91q0-9-4.29-12.28a18,18,0,0,0-11.33-3.42,21.26,21.26,0,0,0-11.15,2.92A11.92,11.92,0,0,0,130.36,24a11.61,11.61,0,0,0-1.74,5.16h10a5.57,5.57,0,0,1,1.94-3.29,7.52,7.52,0,0,1,4.67-1.17,6.14,6.14,0,0,1,4.38,1.24,4.28,4.28,0,0,1,1,1.35,4.14,4.14,0,0,1,.39,1.62,1.84,1.84,0,0,1-.38,1.34,1.93,1.93,0,0,1-1.21.72,31.28,31.28,0,0,1-5.71.62c-.55,0-1.51,0-2.79.12a18.73,18.73,0,0,0-9.58,2.86,9.67,9.67,0,0,0-3.6,5.91A9.52,9.52,0,0,0,129,47.21a10.32,10.32,0,0,0,4.18,3.5,13.48,13.48,0,0,0,6,1.37,12.48,12.48,0,0,0,6.89-1.87,12.9,12.9,0,0,0,4.54-5.1c.06-.1.12-.2.17-.3v6.31h10.24V32.91Zm-11.72,8a9.37,9.37,0,0,1-3.61,3.23,8.56,8.56,0,0,1-3.7,1,5,5,0,0,1-3.08-.93,3,3,0,0,1-.95-1.16,3,3,0,0,1-.29-1.46A3.45,3.45,0,0,1,139,38.67a5.91,5.91,0,0,1,3.19-1.17q4.52-.57,6.06-.9a5.46,5.46,0,0,0,2.7-1.46A9.75,9.75,0,0,1,149.34,40.91Z"/><path class="cls-1" d="M177.59,9.3H167.43v9h-6.09v8h6.09V41a14.38,14.38,0,0,0,1,6.08,6.06,6.06,0,0,0,3.2,3.08,14.73,14.73,0,0,0,5.58.9h9.41V43.12h-6.11A9.79,9.79,0,0,1,178.4,43a1,1,0,0,1-.48-.29.91.91,0,0,1-.24-.49,11.77,11.77,0,0,1-.16-2.29V26.25h9.15V18.3h-9.15Z"/><path class="cls-1" d="M217.74,20.58a17.86,17.86,0,0,0-11.31-3.33,21.21,21.21,0,0,0-11.15,2.92A11.86,11.86,0,0,0,191.34,24a11.5,11.5,0,0,0-1.75,5.16h10a5.6,5.6,0,0,1,1.94-3.29,7.52,7.52,0,0,1,4.67-1.17A6.22,6.22,0,0,1,210.61,26a4.26,4.26,0,0,1,1.32,3,1.84,1.84,0,0,1-.37,1.34,2,2,0,0,1-1.22.72,31.28,31.28,0,0,1-5.71.62c-.54,0-1.51,0-2.86.12a18.69,18.69,0,0,0-9.57,2.86,9.69,9.69,0,0,0-3.49,5.93,9.5,9.5,0,0,0,1.36,6.71,10.49,10.49,0,0,0,4.18,3.51,13.47,13.47,0,0,0,6,1.36,12.43,12.43,0,0,0,6.88-1.87,12.85,12.85,0,0,0,4.55-5.1,1.43,1.43,0,0,0,.16-.3v6.32h10.25V32.91Q222,23.88,217.74,20.58Zm-7.41,20.33a9.47,9.47,0,0,1-3.62,3.23,8.65,8.65,0,0,1-3.73,1,5.07,5.07,0,0,1-3.06-.93,3,3,0,0,1-.95-1.16,3,3,0,0,1-.29-1.46,3.53,3.53,0,0,1,1.24-2.92,6,6,0,0,1,3.2-1.17q4.51-.57,6.07-.9a5.56,5.56,0,0,0,2.69-1.46A9.93,9.93,0,0,1,210.33,40.91Z"/><path class="cls-1" d="M247.36,17.21a10.41,10.41,0,0,0-6.79,2.33,15.72,15.72,0,0,0-4.32,5.37l-.1.2v-6.9H225.91V51h10.15V38.39a18.75,18.75,0,0,1,1.08-6.59A11.28,11.28,0,0,1,240,27.27a5.78,5.78,0,0,1,3.9-1.62,4.43,4.43,0,0,1,2.35.46,4.36,4.36,0,0,1,1.75,1.6c.82,1.36,1.23,3.83,1.24,7.39V51h10.14V31.16q0-6.82-3.23-10.36a11.16,11.16,0,0,0-4-2.77A11.33,11.33,0,0,0,247.36,17.21Z"/><path class="cls-1" d="M285.55,30.85a18.66,18.66,0,0,1-1.08,6.58A11.12,11.12,0,0,1,281.59,42a5.77,5.77,0,0,1-3.92,1.61,4.53,4.53,0,0,1-2.34-.45,4.45,4.45,0,0,1-1.74-1.59c-.84-1.37-1.24-3.83-1.24-7.39V18.25H262.19V38.11q0,6.82,3.25,10.38a11.29,11.29,0,0,0,4,2.74,11.5,11.5,0,0,0,4.82.81A10.27,10.27,0,0,0,281,49.71a17.51,17.51,0,0,0,4.42-5.38,1.85,1.85,0,0,1,.19-.37v7h10.16V18.25H285.55Z"/><path class="cls-1" d="M326.65,33.37a25.33,25.33,0,0,0-11.25-3.21,13.94,13.94,0,0,1-5-1,2.08,2.08,0,0,1-.86-.66,1.92,1.92,0,0,1-.38-1,2.42,2.42,0,0,1,.32-1.2,2.4,2.4,0,0,1,.9-.86,7.43,7.43,0,0,1,3.8-.74q5.07,0,5.27,4h10a10.44,10.44,0,0,0-1.24-4.79,10.71,10.71,0,0,0-3.3-3.75,18.14,18.14,0,0,0-10.56-2.93A21,21,0,0,0,306,18.7a12.29,12.29,0,0,0-5.27,3.91A8.8,8.8,0,0,0,299,27.89a10.06,10.06,0,0,0,2.48,6.68q2.48,2.94,10.16,3.82a37,37,0,0,1,6.69,1.14c1.4.44,2,1.12,2,2a2.46,2.46,0,0,1-1.39,2.18,9.62,9.62,0,0,1-4.52.81,7,7,0,0,1-4.85-1.37A4.93,4.93,0,0,1,308,39.6H298a11.85,11.85,0,0,0,1.18,5.06,12.08,12.08,0,0,0,3.26,4.09c2.79,2.18,6.66,3.27,11.75,3.27a23.85,23.85,0,0,0,8.7-1.36,12.9,12.9,0,0,0,5.64-3.94,9,9,0,0,0,2-5.69,8.22,8.22,0,0,0-.85-4.33A8.48,8.48,0,0,0,326.65,33.37Z"/></g></g></svg>